<svg id="Layer" enable-background="new 0 0 64 64" viewBox="0 0 64 64" fill="#e95225" xmlns="http://www.w3.org/2000/svg"><path d="m19 25h9c1.104 0 2-.896 2-2s-.896-2-2-2h-9c-6.065 0-11 4.935-11 11s4.935 11 11 11h4.172l-1.586 1.586c-.781.781-.781 2.047 0 2.828.391.391.902.586 1.414.586s1.023-.195 1.414-.586l5-5c.781-.781.781-2.047 0-2.828l-5-5c-.781-.781-2.047-.781-2.828 0s-.781 2.047 0 2.828l1.586 1.586h-4.172c-3.859 0-7-3.141-7-7 0-3.86 3.141-7 7-7z"/><path d="m45 21h-4.172l1.586-1.586c.781-.781.781-2.047 0-2.828s-2.047-.781-2.828 0l-5 5c-.781.781-.781 2.047 0 2.828l5 5c.391.391.902.586 1.414.586s1.023-.195 1.414-.586c.781-.781.781-2.047 0-2.828l-1.586-1.586h4.172c3.859 0 7 3.14 7 7 0 3.859-3.141 7-7 7h-9c-1.104 0-2 .896-2 2s.896 2 2 2h9c6.065 0 11-4.935 11-11s-4.935-11-11-11z"/></svg>