<?xml version="1.0" encoding="iso-8859-1"?>
<!-- Generator: Adobe Illustrator 19.0.0, SVG Export Plug-In . SVG Version: 6.00 Build 0)  -->
<svg version="1.1" id="Capa_1" xmlns="http://www.w3.org/2000/svg" xmlns:xlink="http://www.w3.org/1999/xlink" x="0px" y="0px" fill="#13bf98"
	 viewBox="0 0 480 480" style="enable-background:new 0 0 480 480;" xml:space="preserve">
<g>
	<g>
		<path d="M448,168c-17.648,0-32,14.352-32,32v8c0,4.422,3.578,8,8,8h8v8c0,4.414-3.586,8-8,8h-24v-89.133
			c0-21.922-9.773-42.43-26.82-56.266c-15.12-12.283-34.216-17.65-53.18-15.284V8c0-4.422-3.578-8-8-8H168c-4.422,0-8,3.578-8,8
			v63.32c-18.927-2.355-38.054,3-53.18,15.282C89.773,100.438,80,120.945,80,142.867V232H56c-4.414,0-8-3.586-8-8v-8h8
			c4.422,0,8-3.578,8-8v-8c0-17.648-14.352-32-32-32S0,182.352,0,200v40c0,22.055,17.945,40,40,40h49.406l33.672,173.297
			c3.938,15.719,18,26.703,34.203,26.703c14.484,0,27.703-9.078,32.906-22.594l24.664-64.133C218.828,382.945,228.938,376,240,376
			s21.172,6.945,25.148,17.273l24.664,64.133C295.016,470.922,308.234,480,322.719,480c16.203,0,30.266-10.984,34.297-27.125
			L390.594,280H440c22.055,0,40-17.945,40-40v-40C480,182.352,465.648,168,448,168z M176,16h128v58.072
			c-42.519,7.682-85.47,7.683-128,0.001V16z M464,240c0,13.234-10.766,24-24,24h-56c-3.828,0-7.125,2.711-7.852,6.477
			l-34.742,178.93C339.25,458,331.57,464,322.719,464c-7.914,0-15.133-4.961-17.969-12.344l-24.664-64.133
			C273.742,371.063,257.633,360,240,360s-33.742,11.063-40.086,27.523l-24.664,64.133C172.414,459.039,165.195,464,157.281,464
			c-8.852,0-16.531-6-18.594-14.172l-34.836-179.352C103.125,266.711,99.828,264,96,264H40c-13.234,0-24-10.766-24-24v-40
			c0-8.82,7.18-16,16-16s16,7.18,16,16h-8c-4.422,0-8,3.578-8,8v16c0,13.234,10.766,24,24,24h32c4.422,0,8-3.578,8-8v-97.133
			c0-17.078,7.617-33.063,20.898-43.844c12.906-10.477,29.563-14.523,45.578-11.172c51.445,10.813,103.609,10.813,155.039,0
			c16.055-3.359,32.68,0.695,45.586,11.172C376.383,109.805,384,125.789,384,142.867V240c0,4.422,3.578,8,8,8h32
			c13.234,0,24-10.766,24-24v-16c0-4.422-3.578-8-8-8h-8c0-8.82,7.18-16,16-16s16,7.18,16,16V240z"/>
	</g>
</g>
<g>
	<g>
		<path d="M288,176h-96c-4.422,0-8,3.578-8,8c0,30.875,25.125,56,56,56s56-25.125,56-56C296,179.578,292.422,176,288,176z M240,224
			c-19.32,0-35.477-13.766-39.195-32h78.391C275.477,210.234,259.32,224,240,224z"/>
	</g>
</g>
<g>
	<g>
		<path d="M200,136c-13.234,0-24,10.766-24,24h16c0-4.414,3.586-8,8-8s8,3.586,8,8h16C224,146.766,213.234,136,200,136z"/>
	</g>
</g>
<g>
	<g>
		<path d="M280,136c-13.234,0-24,10.766-24,24h16c0-4.414,3.586-8,8-8s8,3.586,8,8h16C304,146.766,293.234,136,280,136z"/>
	</g>
</g>
<g>
	<g>
		<polygon points="248,40 248,32 232,32 232,40 224,40 224,56 232,56 232,64 248,64 248,56 256,56 256,40 		"/>
	</g>
</g>
<g>
	<g>
		<rect x="112" y="176" width="16" height="16"/>
	</g>
</g>
<g>
	<g>
		<path d="M112,144v16h16v-16c0-13.234,10.766-24,24-24v-16C129.945,104,112,121.945,112,144z"/>
	</g>
</g>
<g>
	<g>
		<path d="M280,288c4.422,0,8-3.578,8-8v-16h-16v8h-24v-16h-16v16h-24v-8h-16v16c0,4.422,3.578,8,8,8h32v24h-24v-8h-16v16
			c0,4.422,3.578,8,8,8h32v16h16v-16h32c4.422,0,8-3.578,8-8v-16h-16v8h-24v-24H280z"/>
	</g>
</g>
<g>
</g>
<g>
</g>
<g>
</g>
<g>
</g>
<g>
</g>
<g>
</g>
<g>
</g>
<g>
</g>
<g>
</g>
<g>
</g>
<g>
</g>
<g>
</g>
<g>
</g>
<g>
</g>
<g>
</g>
</svg>
