<?xml version="1.0" encoding="iso-8859-1"?>
<!-- Generator: Adobe Illustrator 19.0.0, SVG Export Plug-In . SVG Version: 6.00 Build 0)  -->
<svg version="1.1" id="Capa_1" xmlns="http://www.w3.org/2000/svg" xmlns:xlink="http://www.w3.org/1999/xlink" x="0px" y="0px" fill="#ffffff"
	 viewBox="0 0 512 512" style="enable-background:new 0 0 512 512;" xml:space="preserve">
<g>
	<g>
		<path d="M209,246h-69.004c-5.522,0-10,4.477-10,10s4.478,10,10,10H209c5.522,0,10-4.477,10-10S214.522,246,209,246z"/>
	</g>
</g>
<g>
	<g>
		<path d="M93.5,246H64.118c-5.522,0-10,4.477-10,10s4.478,10,10,10H93.5c5.522,0,10-4.477,10-10S99.022,246,93.5,246z"/>
	</g>
</g>
<g>
	<g>
		<path d="M209,312h-69.004c-5.522,0-10,4.477-10,10s4.478,10,10,10H209c5.522,0,10-4.477,10-10S214.522,312,209,312z"/>
	</g>
</g>
<g>
	<g>
		<path d="M93.5,312H64.118c-5.522,0-10,4.477-10,10s4.478,10,10,10H93.5c5.522,0,10-4.477,10-10S99.022,312,93.5,312z"/>
	</g>
</g>
<g>
	<g>
		<path d="M209,378h-69.004c-5.522,0-10,4.477-10,10s4.478,10,10,10H209c5.522,0,10-4.477,10-10S214.522,378,209,378z"/>
	</g>
</g>
<g>
	<g>
		<path d="M93.5,378H64.118c-5.522,0-10,4.477-10,10s4.478,10,10,10H93.5c5.522,0,10-4.477,10-10S99.022,378,93.5,378z"/>
	</g>
</g>
<g>
	<g>
		<path d="M488.567,293.689L474,283.925v-20.631c5.968-3.465,10-9.911,10-17.294v-36c0-11.028-8.972-20-20-20H284
			c-11.028,0-20,8.972-20,20v36c0,7.383,4.032,13.829,10,17.294v20.631l-14.567,9.764C244.76,303.523,236,319.94,236,337.604V482
			c0,3.506,0.61,6.87,1.72,10H30c-5.514,0-10-4.486-10-10V50c0-16.542,13.458-30,30-30h318.027C361.735,28.363,358,38.753,358,50
			v102.583c0,5.523,4.478,10,10,10c5.522,0,10-4.477,10-10V50c0-16.542,13.458-30,30-30s30,13.458,30,30v68h-37
			c-5.522,0-10,4.477-10,10s4.478,10,10,10h47c5.522,0,10-4.477,10-10V50c0-27.57-22.43-50-50-50H50C22.43,0,0,22.43,0,50v432
			c0,16.542,13.458,30,30,30h452c16.542,0,30-13.458,30-30V337.604C512,319.94,503.24,303.523,488.567,293.689z M284,210h180
			l0.013,36c0,0-0.004,0-0.013,0h-17.777v-14.592c0-5.523-4.478-10-10-10c-5.522,0-10,4.477-10,10V246H404.74v-14.592
			c0-5.523-4.478-10-10-10c-5.522,0-10,4.477-10,10V246h-21.481v-14.592c0-5.523-4.478-10-10-10c-5.522,0-10,4.477-10,10V246
			h-21.481v-14.592c0-5.523-4.478-10-10-10c-5.522,0-10,4.477-10,10V246H284V210z M492,482c0,5.514-4.486,10-10,10H348h-82
			c-5.514,0-10-4.486-10-10V337.604c0-10.981,5.446-21.187,14.567-27.301l19-12.735c2.771-1.856,4.433-4.972,4.433-8.307V266h160
			v23.261c0,3.335,1.662,6.45,4.433,8.307l19,12.735c9.121,6.114,14.567,16.32,14.567,27.301V482z"/>
	</g>
</g>
<g>
	<g>
		<path d="M410,373.938h-26v-26c0-5.523-4.478-10-10-10c-5.522,0-10,4.477-10,10v26h-26c-5.522,0-10,4.477-10,10s4.478,10,10,10h26
			v26c0,5.523,4.478,10,10,10c5.522,0,10-4.477,10-10v-26h26c5.522,0,10-4.477,10-10S415.522,373.938,410,373.938z"/>
	</g>
</g>
<g>
	<g>
		<path d="M374,301.938c-45.215,0-82,36.785-82,82c0,45.215,36.785,82,82,82c45.215,0,82-36.785,82-82
			C456,338.723,419.215,301.938,374,301.938z M374,445.938c-34.187,0-62-27.813-62-62s27.813-62,62-62s62,27.813,62,62
			S408.187,445.938,374,445.938z"/>
	</g>
</g>
<g>
	<g>
		<path d="M184,94h-30V64c0-5.523-4.478-10-10-10h-40c-5.522,0-10,4.477-10,10v30H64c-5.522,0-10,4.477-10,10v40
			c0,5.523,4.478,10,10,10h30v30c0,5.523,4.478,10,10,10h40c5.522,0,10-4.477,10-10v-30h30c5.522,0,10-4.477,10-10v-40
			C194,98.477,189.522,94,184,94z M174,134h-30c-5.522,0-10,4.477-10,10v30h-20v-30c0-5.523-4.478-10-10-10H74v-20h30
			c5.522,0,10-4.477,10-10V74h20v30c0,5.523,4.478,10,10,10h30V134z"/>
	</g>
</g>
<g>
	<g>
		<path d="M323.778,114h-48.009c-5.522,0-10,4.477-10,10s4.478,10,10,10h48.009c5.522,0,10-4.477,10-10S329.3,114,323.778,114z"/>
	</g>
</g>
<g>
	<g>
		<path d="M242.069,116.93C240.21,115.07,237.63,114,235,114s-5.21,1.07-7.07,2.93S225,121.37,225,124s1.069,5.21,2.93,7.07
			c1.861,1.86,4.44,2.93,7.07,2.93s5.21-1.07,7.069-2.93c1.86-1.86,2.931-4.44,2.931-7.07S243.93,118.79,242.069,116.93z"/>
	</g>
</g>
<g>
	<g>
		<path d="M134.659,427.794c-3.906-3.905-10.236-3.905-14.143,0l-19.764,19.764l-12.285-12.286c-7.756-7.756-20.377-7.756-28.133,0
			l-7.994,7.994c-3.904,3.905-3.904,10.237,0.001,14.142c3.906,3.905,10.236,3.905,14.143,0l7.918-7.918l12.285,12.286
			c3.878,3.878,8.973,5.817,14.066,5.817s10.188-1.939,14.066-5.817l19.84-19.84C138.564,438.031,138.564,431.699,134.659,427.794z"
			/>
	</g>
</g>
<g>
</g>
<g>
</g>
<g>
</g>
<g>
</g>
<g>
</g>
<g>
</g>
<g>
</g>
<g>
</g>
<g>
</g>
<g>
</g>
<g>
</g>
<g>
</g>
<g>
</g>
<g>
</g>
<g>
</g>
</svg>
