<svg id="Layer_1" enable-background="new 0 0 512 512" height="512" viewBox="0 0 512 512" width="512" fill="#ffffff" xmlns="http://www.w3.org/2000/svg"><g><path d="m410 512h-308c-25.364 0-46-20.636-46-46v-420c0-25.364 20.636-46 46-46h308c25.364 0 46 20.636 46 46v420c0 25.364-20.636 46-46 46zm-308-480c-7.72 0-14 6.28-14 14v420c0 7.72 6.28 14 14 14h308c7.72 0 14-6.28 14-14v-420c0-7.72-6.28-14-14-14z"/><path d="m368 96h-48c-8.836 0-16 7.164-16 16s7.164 16 16 16h8c0 39.701-32.299 72-72 72s-72-32.299-72-72h8c8.836 0 16-7.164 16-16s-7.164-16-16-16h-48c-8.836 0-16 7.164-16 16s7.164 16 16 16h8c0 57.346 46.654 104 104 104s104-46.654 104-104h8c8.836 0 16-7.164 16-16s-7.164-16-16-16z"/></g></svg>