<svg id="Capa_1" enable-background="new 0 0 512.006 512.006" height="512" viewBox="0 0 512.006 512.006" width="512" fill="#13bf98" xmlns="http://www.w3.org/2000/svg"><g><path d="m139.197 181.008c4.134 0 7.491-3.347 7.499-7.484.013-6.2 5.033-11.257 11.281-11.257h.026c6.234.013 11.271 5.07 11.257 11.307-.009 4.142 3.341 7.507 7.483 7.517h.017c4.134 0 7.49-3.347 7.5-7.483.032-14.524-11.697-26.309-26.225-26.34h-.06c-14.449 0-26.248 11.671-26.28 26.225-.009 4.142 3.342 7.507 7.484 7.516h.018zm221.623 297.157c-7.706 5.889-16.412 9.002-25.175 9.002-39.873 0-56.178-51.228-68.401-89.354-9.009-28.099-14.96-46.663-29.209-46.663-14.25 0-20.201 18.564-29.21 46.663-12.229 38.143-28.559 89.353-68.4 89.353-20.881 0-46.186-18.044-55.766-68.272 3.364-3.938 3.507-6.575 10.71-23.102.457-1.091 1.31-1.944 2.401-2.401l17.85-7.479c15.929-6.675 15.955-29.249-.001-35.936l-17.849-7.479c-1.091-.457-1.944-1.31-2.401-2.401l-7.479-17.85c-2.964-7.072-9.424-11.563-17.001-11.917-18.839-54.46-55.889-73.692-55.889-153.633 0-31.293 14.834-61.344 40.699-82.449 3.209-2.619 3.688-7.343 1.069-10.553-2.619-3.209-7.342-3.688-10.553-1.069-29.37 23.966-46.215 58.253-46.215 94.071 0 84.462 39.015 107.131 56.755 158.657-2.022 1.865-3.67 4.189-4.803 6.893l-7.479 17.849c-.457 1.091-1.31 1.944-2.401 2.401l-17.85 7.479c-15.929 6.675-15.955 29.249 0 35.936l17.849 7.479c1.091.457 1.944 1.31 2.401 2.401l7.479 17.85c3.127 7.461 10.24 12.242 18.742 11.924 11.943 56.281 43.407 76.6 69.73 76.6 22.523 0 41.459-12.048 56.284-35.809 21.964-35.205 31.345-91.545 41.327-99.995 9.923 8.4 19.434 64.905 41.326 99.994 14.824 23.761 33.761 35.809 56.284 35.809 12.084 0 23.939-4.179 34.284-12.084 3.291-2.515 3.92-7.222 1.405-10.513-2.515-3.289-7.223-3.917-10.513-1.402zm-288.274-68.378c-2.475 1.565-5.601.825-6.76-1.942l-7.479-17.849c-1.988-4.744-5.695-8.451-10.439-10.439l-17.849-7.479c-3.665-1.536-3.688-6.722 0-8.267l17.849-7.479c4.744-1.988 8.451-5.695 10.439-10.439l7.479-17.849c1.536-3.665 6.722-3.688 8.267-.001l7.479 17.849c1.988 4.744 5.695 8.451 10.439 10.439l17.849 7.479c3.665 1.536 3.688 6.722.001 8.267l-17.849 7.479c-4.744 1.988-8.451 5.695-10.439 10.439-7.721 17.796-7.196 18.519-8.987 19.792zm165.507-159.937c26.192-.013 47.489-23.468 47.475-52.285-.018-34.542-30.892-34.516-47.519-34.52-16.601.008-47.501.024-47.484 34.568.015 28.81 21.322 52.237 47.505 52.237zm-32.528-52.244c-.008-15.525 6.673-19.547 32.491-19.561h.121c25.717 0 32.383 4.027 32.391 19.528.01 20.545-14.562 37.268-32.482 37.277h-.015c-17.914 0-32.495-16.705-32.506-37.244zm290.094 95.562-28.603-11.986c-2.849-1.193-5.075-3.42-6.27-6.269l-9.065-21.633c13.131-23.712 24.387-51.329 24.387-96.584 0-16.892-3.585-33.187-10.652-48.554l17.171-7.195c18.414-7.715 18.434-33.803 0-41.528l-22.365-9.371c-1.83-.767-3.259-2.197-4.026-4.026l-9.372-22.365c-7.715-18.413-33.804-18.434-41.527 0l-8.017 19.132c-48.653-21.326-106.912-15.291-148.996 15.879-6.035 4.47-14.464 4.47-20.499 0-41.626-30.833-100.18-37.575-149.542-15.665-3.786 1.68-5.493 6.112-3.812 9.898s6.111 5.493 9.898 3.812c44.699-19.84 97.46-13.447 134.528 14.009 11.291 8.363 27.063 8.364 38.355 0 34.742-25.733 83.291-33.052 126.485-17.237l-14.163 5.935c-18.413 7.715-18.434 33.804 0 41.527l22.365 9.372c1.83.767 3.26 2.197 4.026 4.026l9.372 22.365c6.061 14.462 20.99 13.881 20.764 13.812 9.237 0 17.194-5.292 20.764-13.812l7.178-17.131c4.693 11.859 7.065 24.295 7.065 37.117 0 104.997-65.855 108.175-65.855 218.336 0 31.758-4.9 57.876-14.565 77.628-1.82 3.721-.28 8.212 3.44 10.033 3.697 1.809 8.201.304 10.033-3.44 7.826-15.993 12.811-35.499 14.923-58.18 13.014 8.888 32.742 4.846 39.716-11.795l11.986-28.603c1.193-2.849 3.42-5.075 6.269-6.27l28.603-11.985c21.832-9.149 21.868-40.088.001-49.252zm-41.195-196.683c-5.482 2.297-9.766 6.581-12.063 12.063l-9.371 22.365c-2.575 6.144-11.283 6.147-13.859.001l-9.372-22.365c-2.297-5.482-6.581-9.766-12.063-12.063l-22.365-9.372c-6.145-2.576-6.147-11.284 0-13.859l22.366-9.372c5.481-2.297 9.766-6.581 12.063-12.063l9.372-22.365c2.575-6.145 11.283-6.146 13.858 0l9.372 22.366c2.297 5.481 6.581 9.766 12.063 12.063l22.365 9.371c6.145 2.576 6.146 11.284 0 13.859zm35.398 232.1-28.603 11.986c-6.501 2.725-11.583 7.806-14.306 14.307l-11.986 28.603c-4.02 9.593-17.554 9.615-21.582 0l-3.139-7.492c.141-46.228 9.87-69.303 32.027-106.449l4.681 11.17c2.725 6.502 7.806 11.583 14.307 14.307l28.603 11.986c9.59 4.019 9.613 17.552-.002 21.582zm-164.04-146.027c4.135 0 7.492-3.349 7.499-7.486l.031-16.028c.008-4.142-3.343-7.506-7.486-7.514h-.015c-4.135 0-7.492 3.349-7.5 7.486l-.031 16.028c-.008 4.142 3.343 7.506 7.486 7.514z"/></g></svg>