<svg id="Capa_1" enable-background="new 0 0 511.981 511.981" height="512px" viewBox="0 0 511.981 511.981" width="512px" fill="#ffffff" xmlns="http://www.w3.org/2000/svg"><g><g><path d="m307.637 308.429c-1.272 0-2.565-.245-3.814-.761-5.104-2.108-7.533-7.956-5.424-13.061l10.89-26.358-22.973 5.47c-3.662.872-7.503-.386-9.939-3.257-2.437-2.869-3.055-6.864-1.6-10.336l16.103-38.436c2.134-5.094 7.993-7.491 13.087-5.359 5.094 2.135 7.493 7.994 5.359 13.088l-8.499 20.285 22.856-5.442c3.656-.869 7.486.382 9.924 3.237 2.438 2.857 3.069 6.839 1.635 10.31l-18.359 44.436c-1.592 3.855-5.319 6.184-9.246 6.184z"/><g><path d="m230.11 398.96c-4.182 0-7.997-2.709-9.405-6.636-1.409-3.929-.164-8.439 3.061-11.093 3.27-2.69 8.025-3.003 11.62-.767 3.593 2.235 5.434 6.641 4.464 10.765-1.051 4.465-5.145 7.731-9.74 7.731z"/></g><path d="m501.092 401.06-67.418-67.504c-1.876-1.878-4.421-2.934-7.076-2.934s-5.2 1.056-7.076 2.934l-12.857 12.873-21.884-21.912c26.305-32.046 30.106-76.534 11.41-112.203 7.014-14.365 10.43-28.272 10.43-42.424 0-31.796-11.267-61.94-31.727-84.882-21.71-24.341-51.593-37.745-84.145-37.745-4.559 0-18.431 0-62.588 27.358-15.329 9.498-34.374 9.498-49.703 0-44.156-27.358-58.029-27.358-62.587-27.358-32.552 0-62.435 13.405-84.145 37.745-20.458 22.941-31.726 53.086-31.726 84.882 0 38.212 25.523 68.75 50.206 98.283 3.419 4.091 6.58 7.771 9.636 11.33 20.437 23.798 29.764 34.659 29.764 67.742v16.5c0 24.34 8.688 47.921 24.463 66.398 15.601 18.273 37.167 30.503 60.729 34.438.548.092 1.099.137 1.647.137 2.349 0 4.644-.828 6.462-2.369 2.244-1.899 3.538-4.69 3.538-7.631v-133.128c0-9.379 7.351-17.211 16.386-17.459 4.593-.097 8.938 1.567 12.227 4.767 3.302 3.213 5.121 7.521 5.121 12.104l-.066 22.96c-.016 5.522 4.448 10.013 9.971 10.028h.03c5.509 0 9.983-4.459 9.999-9.972l.018-6.391c16.118 13.703 35.839 21.944 56.886 23.778v2.34c0 36.317-23.308 67.569-56.878 78.303l-.026-8.09c-.018-5.512-4.491-9.968-10-9.968h-.032c-5.523.018-9.986 4.509-9.968 10.032l.066 20.728c.009 2.934 1.307 5.717 3.55 7.609 1.817 1.534 4.106 2.358 6.45 2.358.548 0 1.099-.045 1.647-.137 23.561-3.935 45.128-16.164 60.729-34.438 15.775-18.478 24.463-42.059 24.463-66.398v-2.532c19.762-2.107 38.279-9.886 53.634-22.543l21.882 21.909-11.559 11.574c-3.899 3.904-3.899 10.229 0 14.133l67.419 67.504c7.038 7.047 16.396 10.928 26.35 10.928s19.312-3.881 26.35-10.928c14.517-14.537 14.517-38.191-.002-52.729zm-298.811-116.921c-19.761.543-35.837 17.344-35.837 37.451v120.445c-33.549-10.746-56.838-41.987-56.838-78.29v-16.5c0-40.492-13.02-55.653-34.591-80.772-3.014-3.509-6.13-7.138-9.463-11.126-27.516-32.922-45.552-56.657-45.552-85.457 0-26.881 9.465-52.298 26.653-71.569 17.863-20.028 42.445-31.058 69.219-31.058 2.588 0 12.376 1.318 38.655 16.359l5.909 6.808c16.6 19.126 38.441 32.1 63.162 37.519 8.353 1.832 16.764 2.741 25.134 2.741 16.402 0 32.638-3.496 47.909-10.403 5.032-2.276 7.266-8.2 4.99-13.232s-8.2-7.266-13.233-4.99c-26.559 12.016-55.916 11.345-80.877-.432 10.817-.687 21.515-4.023 31.176-10.009 36.482-22.604 49.066-24.36 52.054-24.36 26.773 0 51.355 11.03 69.218 31.058 17.188 19.271 26.653 44.688 26.653 71.569 0 7.659-1.252 15.107-3.873 22.792-1.51-1.73-3.087-3.421-4.733-5.069-19.271-19.295-44.888-29.921-72.133-29.921-27.216 0-52.799 10.607-72.037 29.869-26.146 26.178-35.072 63.173-26.785 96.753-1.575-.159-3.171-.219-4.78-.176zm45.716-82.445c15.458-15.478 36.016-24.002 57.885-24.002 21.898 0 42.489 8.542 57.981 24.054 31.969 32.01 31.992 84.069.052 116.05-15.458 15.478-36.016 24.001-57.885 24.001-21.898 0-42.49-8.542-57.981-24.054-31.969-32.01-31.993-84.069-.052-116.049zm238.944 237.964c-3.259 3.263-7.592 5.061-12.199 5.061s-8.94-1.798-12.199-5.061l-60.361-60.438 11.544-11.559.006-.006.007-.007 12.859-12.875 60.343 60.419c6.736 6.746 6.736 17.721 0 24.466z"/></g></g></svg>