<?xml version="1.0" encoding="iso-8859-1"?>
<!-- Generator: Adobe Illustrator 19.0.0, SVG Export Plug-In . SVG Version: 6.00 Build 0)  -->
<svg version="1.1" id="Capa_1" xmlns="http://www.w3.org/2000/svg" xmlns:xlink="http://www.w3.org/1999/xlink" x="0px" y="0px" fill="#fcb700"
	 viewBox="0 0 426.742 426.742" style="enable-background:new 0 0 426.742 426.742;" xml:space="preserve">
<g>
	<g>
		<path d="M398.299,161.491l-90.957-68.128c-51.891-38.867-136.073-38.833-187.928,0l-91.139,68.253
			c-37.678,28.217-37.664,74.156-0.167,102.46l91.666,69.191c51.7,39.025,135.58,38.977,187.209,0l91.651-69.191
			C436.212,235.705,436.123,189.822,398.299,161.491z M372.924,230.023l-91.651,69.191c-36.439,27.51-99.333,27.521-135.796-0.002
			l-91.666-69.191c-14.873-11.227-14.861-23.097,0.037-34.254l91.139-68.253c36.711-27.492,100.061-27.5,136.774-0.002
			l90.957,68.128C387.81,206.942,387.843,218.761,372.924,230.023z"/>
	</g>
</g>
<g>
	<g>
		<path d="M213.352,138.04c-41.237,0-74.667,33.429-74.667,74.667c0,41.237,33.429,74.667,74.667,74.667
			s74.667-33.429,74.667-74.667C288.019,171.469,254.59,138.04,213.352,138.04z M213.352,244.706c-17.673,0-32-14.327-32-32
			c0-17.673,14.327-32,32-32s32,14.327,32,32C245.352,230.379,231.025,244.706,213.352,244.706z"/>
	</g>
</g>
<g>
</g>
<g>
</g>
<g>
</g>
<g>
</g>
<g>
</g>
<g>
</g>
<g>
</g>
<g>
</g>
<g>
</g>
<g>
</g>
<g>
</g>
<g>
</g>
<g>
</g>
<g>
</g>
<g>
</g>
</svg>
